<?xml version="1.0" encoding="utf-8"?>
<!-- Generator: Adobe Illustrator 16.0.0, SVG Export Plug-In . SVG Version: 6.00 Build 0)  -->
<!DOCTYPE svg PUBLIC "-//W3C//DTD SVG 1.1 Tiny//EN" "http://www.w3.org/Graphics/SVG/1.1/DTD/svg11-tiny.dtd">
<svg version="1.1" baseProfile="tiny" id="Layer_1" xmlns="http://www.w3.org/2000/svg" xmlns:xlink="http://www.w3.org/1999/xlink"
	 x="0px" y="0px" width="1032px" height="1032px" viewBox="0 0 1032 1032" xml:space="preserve">
<path stroke="#000000" stroke-width="10" stroke-miterlimit="10" d="M548.323,492.49c0-7.809-6.322-14.128-14.125-14.128
	c-0.012,0-0.022,0-0.034,0c-1.172-5.96-6.42-10.449-12.723-10.449c-5.863,0-10.814,3.893-12.418,9.233
	c-0.987-0.32-2.04-0.5-3.131-0.5c-5.38,0-9.763,4.202-10.081,9.496c-0.591-0.104-1.198-0.168-1.816-0.168
	c-5.698,0-10.319,4.62-10.319,10.32c0,4.108,2.413,7.646,5.889,9.303c-0.017,0.286-0.042,0.57-0.042,0.859
	c0,6.542,5.307,11.85,11.853,11.85c1.861,0,3.616-0.443,5.184-1.207c2.043,2.408,5.082,3.939,8.488,3.939
	c2.86,0,5.46-1.087,7.431-2.861c2.423,2.333,5.715,3.775,9.345,3.775c7.452,0,13.492-6.039,13.492-13.492
	c0-2.083-0.487-4.05-1.329-5.81C546.655,500.084,548.323,496.487,548.323,492.49z"/>
<path d="M524.061,556.347v-42.979h-0.459l-2.796-2.277l-4.173,2.277h-4.371v42.979c-0.029,4.281-3.5,7.74-7.787,7.74h27.373
	C527.561,564.087,524.091,560.628,524.061,556.347z"/>
</svg>
