<?xml version="1.0" encoding="utf-8"?>
<!-- Generator: Adobe Illustrator 16.0.0, SVG Export Plug-In . SVG Version: 6.00 Build 0)  -->
<!DOCTYPE svg PUBLIC "-//W3C//DTD SVG 1.1 Tiny//EN" "http://www.w3.org/Graphics/SVG/1.1/DTD/svg11-tiny.dtd">
<svg version="1.1" baseProfile="tiny" id="Layer_1" xmlns="http://www.w3.org/2000/svg" xmlns:xlink="http://www.w3.org/1999/xlink"
	 x="0px" y="0px" width="1032px" height="1032px" viewBox="0 0 1032 1032" xml:space="preserve">
<rect fill="#FFFFFF" width="1032" height="1032"/>
<path d="M594.77,471.479c-1.81-1.118-4.151-1.118-5.975,0l-40.05,24.589v-13.485c0-11.629-8.849-21.083-19.706-21.083h-75.104
	c-10.857,0-19.686,9.454-19.686,21.083v66.841c0,11.629,8.828,21.076,19.686,21.076h75.104c10.857,0,19.706-9.447,19.706-21.076
	v-13.531l40.05,24.588c0.918,0.559,1.956,0.839,2.994,0.839s2.076-0.28,2.98-0.839c1.836-1.131,2.98-3.232,2.98-5.495v-78.024
	C597.75,474.699,596.605,472.604,594.77,471.479z M548.745,510.704l37.069-22.759v56.077l-37.069-22.779V510.704z M536.438,549.424
	c0,4.418-3.312,8.01-7.398,8.01h-75.104c-4.078,0-7.384-3.592-7.384-8.01v-66.841c0-4.417,3.306-8.017,7.384-8.017h75.104
	c4.086,0,7.398,3.599,7.398,8.017V549.424z"/>
</svg>
