<?xml version="1.0" encoding="utf-8"?>
<!-- Generator: Adobe Illustrator 16.0.0, SVG Export Plug-In . SVG Version: 6.00 Build 0)  -->
<!DOCTYPE svg PUBLIC "-//W3C//DTD SVG 1.1 Tiny//EN" "http://www.w3.org/Graphics/SVG/1.1/DTD/svg11-tiny.dtd">
<svg version="1.1" baseProfile="tiny" id="Layer_1" xmlns="http://www.w3.org/2000/svg" xmlns:xlink="http://www.w3.org/1999/xlink"
	 x="0px" y="0px" width="1032px" height="1032px" viewBox="0 0 1032 1032" xml:space="preserve">
<rect fill="#FFFFFF" width="1032" height="1032"/>
<g>
	<path fill="none" stroke="#FFFFFF" stroke-width="1.44" stroke-miterlimit="10" d="M-65.967,467.658
		c0-6.068-4.937-11.004-11.004-11.004c-6.068,0-11.005,4.936-11.005,11.004c0,2.427,0.799,4.664,2.135,6.485l-0.02-0.009
		l8.889,12.112l8.892-12.112l-0.022,0.01C-66.767,472.324-65.967,470.085-65.967,467.658z"/>
	<circle fill="#FFFFFF" cx="-76.971" cy="467.658" r="6.477"/>
</g>
<path fill="none" stroke="#000000" stroke-width="1.44" stroke-miterlimit="10" d="M478.756,517.266
	c-17.015,0-30.836,13.842-30.836,30.836l0.025,30.836h30.811c16.998,0,30.819-13.842,30.819-30.836S495.754,517.266,478.756,517.266
	z"/>
<path fill="none" stroke="#000000" stroke-width="1.44" stroke-miterlimit="10" d="M553.274,517.266
	c-17.019,0-30.819,13.842-30.819,30.836s13.801,30.836,30.819,30.836c16.978,0,30.812-13.842,30.812-30.836
	S570.252,517.266,553.274,517.266z"/>
<path fill="none" stroke="#000000" stroke-width="1.44" stroke-miterlimit="10" d="M517.73,453.063
	c-16.993,0-30.835,13.801-30.835,30.815c0,16.994,13.842,30.819,30.835,30.819c16.979,0,30.82-13.825,30.82-30.819
	C548.551,466.864,534.709,453.063,517.73,453.063z"/>
<path stroke="#000000" stroke-miterlimit="10" d="M517.73,505.715c-8.92,0-16.565-5.37-19.972-13.036
	c-3.004-7.979,3.074-13.483,14.759-12.682h11.386c6.315,0,10.978-2.233,13.862-4.785c1.156,2.65,1.807,5.588,1.807,8.666
	C539.572,495.917,529.767,505.715,517.73,505.715z"/>
<path stroke="#000000" stroke-miterlimit="10" d="M553.274,569.918c-8.921,0-16.565-5.35-19.981-13.016
	c-3.016-7.979,3.099-13.447,14.784-12.66h11.369c6.312,0,10.999-2.238,13.858-4.785c1.136,2.625,1.807,5.566,1.807,8.645
	C575.111,560.141,565.306,569.918,553.274,569.918z"/>
<path stroke="#000000" stroke-miterlimit="10" d="M478.756,569.918c-5.786,0-11.036-2.256-14.957-5.918l-0.922-0.963
	c-1.708-1.801-3.074-3.859-4.094-6.135c-3.02-7.979,3.078-13.447,14.76-12.66h11.39c6.312,0,10.978-2.238,13.862-4.785
	c1.136,2.625,1.802,5.566,1.802,8.645C500.597,560.141,490.771,569.918,478.756,569.918z"/>
<path fill="none" stroke="#FFFFFF" stroke-width="1.5176" stroke-linecap="round" stroke-linejoin="round" stroke-miterlimit="10" d="
	M-380.417,585.683c-0.412,0.274-6.406,5.229-6.406,5.229h-7.508c-0.376,0-0.682,0.305-0.682,0.682v9.725
	c0,0.376,0.306,0.682,0.682,0.682h7.475c2.022,1.804,5.737,5.125,6.233,5.621c0.686,0.686,1.577,0.137,1.577-0.891
	c0-1.029,0-18.854,0-20.088S-380.007,585.408-380.417,585.683z"/>
<path fill="none" stroke="#FFFFFF" stroke-width="1.5176" stroke-linecap="round" stroke-linejoin="round" stroke-miterlimit="10" d="
	M-375.109,591.689c0.883,1.179,1.451,3.025,1.451,5.1c0,1.822-0.438,3.469-1.144,4.641"/>
<path fill="none" stroke="#FFFFFF" stroke-width="1.5176" stroke-linecap="round" stroke-linejoin="round" stroke-miterlimit="10" d="
	M-372.427,588.942c1.436,1.726,2.377,4.598,2.377,7.847c0,2.934-0.768,5.559-1.973,7.311"/>
<path fill="none" stroke="#FFFFFF" stroke-width="1.5176" stroke-linecap="round" stroke-linejoin="round" stroke-miterlimit="10" d="
	M-369.749,586.297c1.959,2.264,3.25,6.118,3.25,10.492c0,4.008-1.083,7.579-2.771,9.891"/>
</svg>
