<?xml version="1.0" encoding="utf-8"?>
<!-- Generator: Adobe Illustrator 16.0.0, SVG Export Plug-In . SVG Version: 6.00 Build 0)  -->
<!DOCTYPE svg PUBLIC "-//W3C//DTD SVG 1.1 Tiny//EN" "http://www.w3.org/Graphics/SVG/1.1/DTD/svg11-tiny.dtd">
<svg version="1.1" baseProfile="tiny" id="Layer_1" xmlns="http://www.w3.org/2000/svg" xmlns:xlink="http://www.w3.org/1999/xlink"
	 x="0px" y="0px" width="1032px" height="1032px" viewBox="0 0 1032 1032" xml:space="preserve">
<rect fill="#FFFFFF" width="1032" height="1032"/>
<g>
	<path d="M587.762,509.983H444.203v84.597h85.126v-61.918h45.56v61.918h12.873V509.983z M518.691,572.131h-61.61v-39.704h61.61
		V572.131z"/>
	<polygon points="471.908,476.583 459.191,476.583 434.802,495.903 453.962,495.903 	"/>
	<polygon points="497.342,476.583 484.625,476.583 471.803,495.903 489.648,495.903 	"/>
	<polygon points="548.201,476.583 535.488,476.583 543.177,495.903 561.022,495.903 	"/>
	<polygon points="573.634,476.583 560.917,476.583 578.863,495.903 597.198,495.903 	"/>
	<path d="M444.63,505.781c3.954,0,7.361-2.354,8.926-5.743c1.55,3.388,4.958,5.743,8.912,5.743c3.962,0,7.375-2.354,8.93-5.743
		c1.554,3.388,4.962,5.743,8.92,5.743c3.953,0,7.361-2.354,8.916-5.743c1.56,3.388,4.967,5.743,8.925,5.743
		c3.958,0,7.366-2.354,8.921-5.743c1.556,3.388,4.967,5.743,8.921,5.743c3.963,0,7.365-2.354,8.921-5.743
		c1.559,3.388,4.971,5.743,8.925,5.743c3.958,0,7.36-2.354,8.921-5.743c1.555,3.388,4.962,5.743,8.921,5.743
		c3.957,0,7.369-2.354,8.925-5.743c1.55,3.388,4.966,5.743,8.921,5.743c3.957,0,7.36-2.354,8.92-5.743
		c1.555,3.388,4.963,5.743,8.92,5.743c5.426,0,9.825-4.424,9.825-9.877h-17.845h-1.805h-16.037h-1.805H543.67h-1.804h-16.042h-1.804
		h-16.037h-1.805h-16.037h-1.808h-16.042h-1.8h-16.036h-1.805h-17.85C434.802,501.357,439.205,505.781,444.63,505.781z"/>
	<polygon points="522.771,476.583 510.054,476.583 507.49,495.903 525.336,495.903 	"/>
	<g>
		<path d="M470.243,470.562h-3.268c-0.14,0-0.214-0.036-0.384-0.365c-0.62-1.208-1.97-3.334-1.97-3.334l-2.124,0.035
			c0,0,0,2.059,0,3.499c0,0.151-0.013,0.165-0.144,0.165c-1.179,0-1.917,0-3.023,0c-0.148,0-0.148,0.025-0.148-0.165
			c0-4.778,0-7.797,0-12.226c0-0.186,0.092-0.167,0.148-0.167h5.71c2.843,0,4.355,1.965,4.355,4.246c0,1.702-0.59,2.906-1.717,3.442
			c0.476,0.765,1.529,2.629,2.604,4.375C470.505,470.435,470.444,470.562,470.243,470.562z M464.329,460.766h-1.831v3.634
			l1.845-0.059c0.995-0.039,1.545-0.778,1.545-1.852C465.888,461.506,465.398,460.766,464.329,460.766z"/>
		<path d="M475.368,470.562c-1.214,0-1.896,0-3.057,0c-0.171,0-0.171,0.025-0.171-0.165c0-4.778,0-7.797,0-12.226
			c0-0.186,0-0.167,0.171-0.167c1.161,0,1.843,0,3.057,0c0.171,0,0.184,0.018,0.184,0.167c0,2.875,0,9.319,0,12.226
			C475.552,470.549,475.539,470.562,475.368,470.562z"/>
		<path d="M482.484,470.881c-2.507,0-4.076-1.012-4.701-2.834c-0.074-0.207-0.056-0.297,0.074-0.352l2.268-0.927
			c0.166-0.054,0.166-0.054,0.201,0.096c0.223,0.688,1.065,1.496,2.232,1.496c1.271,0,1.861-0.384,1.861-1.236
			c0-0.76-0.538-1.245-2.232-1.45c-0.127-0.015-0.306-0.039-0.442-0.054c-2.231-0.22-3.778-1.482-3.778-3.78
			c0-2.405,1.643-4.091,4.902-4.091c2.459,0,3.962,1.16,4.443,2.722c0.057,0.203-0.018,0.272-0.123,0.311l-2.158,0.877
			c-0.13,0.051-0.187,0.018-0.223-0.074c-0.261-0.744-1.109-1.466-2.066-1.466c-1.289,0-1.69,0.483-1.69,1.166
			c0,0.853,0.677,1.206,2.337,1.48c0.166,0.02,0.363,0.063,0.607,0.093c2.359,0.338,3.727,1.596,3.727,3.911
			C487.723,469.621,485.376,470.881,482.484,470.881z"/>
		<path d="M498.504,460.711l-3.149-0.039c0,0,0,8.284,0,9.725c0,0.151-0.022,0.165-0.167,0.165c-1.236,0-1.9,0-3.045,0
			c-0.183,0-0.183,0.025-0.183-0.165c0-2.293,0-9.725,0-9.725l-3.246,0.039c-0.131,0-0.131-0.023-0.131-0.129
			c0-1.035,0-1.134,0-2.394c0-0.147,0-0.185,0.148-0.185h9.759c0.126,0,0.145,0.037,0.145,0.185c0,1.26,0,1.358,0,2.394
			C498.635,460.688,498.617,460.711,498.504,460.711z"/>
		<path d="M506.026,470.881c-3.721,0-6.548-2.927-6.548-6.556c0-3.637,2.827-6.577,6.548-6.577c3.719,0,6.545,2.94,6.545,6.577
			C512.571,467.954,509.745,470.881,506.026,470.881z M506.026,460.916c-1.996,0-3.097,1.495-3.097,3.409
			c0,1.908,1.101,3.385,3.097,3.385c1.95,0,3.099-1.478,3.099-3.385C509.125,462.411,507.976,460.916,506.026,460.916z"/>
		<path d="M525.935,470.562h-3.264c-0.145,0-0.219-0.036-0.385-0.365c-0.629-1.208-1.97-3.334-1.97-3.334l-2.123,0.035
			c0,0,0,2.059,0,3.499c0,0.151-0.018,0.165-0.154,0.165c-1.174,0-1.908,0-3.018,0c-0.148,0-0.148,0.025-0.148-0.165
			c0-4.778,0-7.797,0-12.226c0-0.186,0.092-0.167,0.148-0.167h5.714c2.835,0,4.352,1.965,4.352,4.246
			c0,1.702-0.59,2.906-1.713,3.442c0.48,0.765,1.524,2.629,2.599,4.375C526.191,470.435,526.136,470.562,525.935,470.562z
			 M520.019,460.766h-1.825v3.634l1.844-0.059c0.991-0.039,1.546-0.778,1.546-1.852
			C521.583,461.506,521.089,460.766,520.019,460.766z"/>
		<path d="M539.634,470.562c-0.892,0-2.026,0-3.451,0c-0.092,0-0.166-0.014-0.223-0.143c-0.219-0.505-0.494-1.186-0.681-1.651
			h-4.456c-0.228,0.518-0.464,1.146-0.651,1.59c-0.058,0.153-0.088,0.204-0.333,0.204c-1.218,0-1.839,0-3.062,0
			c-0.148,0-0.162-0.073-0.092-0.256c1.922-4.096,4.832-10.004,6.269-12.707c0.022-0.039,0.114-0.039,0.219-0.039
			c0.118,0,0.209-0.02,0.224,0.039c1.682,3.295,4.28,8.611,6.303,12.707C539.817,470.549,539.796,470.562,539.634,470.562z
			 M532.989,463.547l-1.249,2.815h2.556L532.989,463.547z"/>
		<path d="M551.739,470.896c-0.035,0.019-0.087,0-0.17-0.051c-2.778-2.093-7.126-6.115-7.126-6.115v5.667
			c0,0.165,0,0.165-0.17,0.165c-1.157,0-1.673,0-2.782,0c-0.132,0-0.184-0.106-0.184-0.185c-0.097-4.72-0.075-7.664,0-12.557
			c0-0.091,0.017-0.13,0.052-0.152c0.04-0.032,0.092-0.016,0.149,0.022c2.633,1.887,7.151,6.095,7.151,6.095v-5.56
			c0-0.205,0-0.222,0.148-0.222c1.104,0,1.642,0,2.805,0c0.183,0,0.183,0.037,0.183,0.222c0.074,3.612,0.057,8.58,0,12.43
			C551.796,470.792,551.796,470.881,551.739,470.896z"/>
		<path d="M563.539,460.711l-3.154-0.039c0,0,0,8.284,0,9.725c0,0.151-0.018,0.165-0.166,0.165c-1.236,0-1.896,0-3.041,0
			c-0.188,0-0.188,0.025-0.188-0.165c0-2.293,0-9.725,0-9.725l-3.245,0.039c-0.123,0-0.123-0.023-0.123-0.129
			c0-1.035,0-1.134,0-2.394c0-0.147,0-0.185,0.145-0.185h9.759c0.122,0,0.145,0.037,0.145,0.185c0,1.26,0,1.358,0,2.394
			C563.67,460.688,563.647,460.711,563.539,460.711z"/>
		<path d="M574.158,470.562h-8.427c-0.183,0-0.204-0.036-0.204-0.256c0-3.241,0-8.56,0-12.118c0-0.167-0.014-0.185,0.17-0.185h8.334
			c0.18,0,0.201,0.018,0.201,0.242c0,0.927,0,1.464,0,2.263c0,0.164-0.057,0.257-0.201,0.257l-5.271-0.054v2.094h5.154
			c0.17,0,0.188,0.035,0.188,0.259c0,0.905,0,1.519,0,2.259c0,0.222-0.018,0.259-0.188,0.259h-5.154v2.146l5.398-0.05
			c0.201,0,0.201,0,0.201,0.238c0,0.927,0,1.632,0,2.39C574.359,470.526,574.342,470.562,574.158,470.562z"/>
	</g>
</g>
</svg>
