<?xml version="1.0" encoding="utf-8"?>
<!-- Generator: Adobe Illustrator 16.0.0, SVG Export Plug-In . SVG Version: 6.00 Build 0)  -->
<!DOCTYPE svg PUBLIC "-//W3C//DTD SVG 1.1 Tiny//EN" "http://www.w3.org/Graphics/SVG/1.1/DTD/svg11-tiny.dtd">
<svg version="1.1" baseProfile="tiny" id="Layer_1" xmlns="http://www.w3.org/2000/svg" xmlns:xlink="http://www.w3.org/1999/xlink"
	 x="0px" y="0px" width="1032px" height="1032px" viewBox="0 0 1032 1032" xml:space="preserve">
<rect fill="#FFFFFF" width="1032" height="1032"/>
<g>
	<path fill="none" stroke="#FFFFFF" stroke-width="1.44" stroke-miterlimit="10" d="M-64.596,544.178
		c0-6.068-4.937-11.004-11.004-11.004c-6.068,0-11.005,4.936-11.005,11.004c0,2.427,0.799,4.664,2.135,6.485l-0.02-0.009
		l8.889,12.112l8.892-12.112l-0.022,0.01C-65.396,548.844-64.596,546.604-64.596,544.178z"/>
	<circle fill="#FFFFFF" cx="-75.6" cy="544.177" r="6.477"/>
</g>
<g>
	<path fill="none" stroke="#FFFFFF" stroke-width="1.44" stroke-miterlimit="10" d="M-136.134,672.035
		c-4.038,0-7.318,3.285-7.318,7.318l0.006,7.318h7.312c4.034,0,7.314-3.285,7.314-7.318S-132.1,672.035-136.134,672.035z"/>
	<path fill="none" stroke="#FFFFFF" stroke-width="1.44" stroke-miterlimit="10" d="M-118.448,672.035
		c-4.039,0-7.314,3.285-7.314,7.318s3.275,7.318,7.314,7.318c4.029,0,7.312-3.285,7.312-7.318S-114.419,672.035-118.448,672.035z"/>
	<path fill="none" stroke="#FFFFFF" stroke-width="1.44" stroke-miterlimit="10" d="M-126.884,656.798
		c-4.033,0-7.318,3.275-7.318,7.313c0,4.033,3.285,7.314,7.318,7.314c4.029,0,7.314-3.281,7.314-7.314
		C-119.569,660.073-122.854,656.798-126.884,656.798z"/>
	<path fill="#FFFFFF" d="M-126.884,669.294c-2.117,0-3.932-1.274-4.74-3.094c-0.713-1.894,0.729-3.2,3.503-3.01h2.702
		c1.499,0,2.605-0.53,3.29-1.136c0.274,0.629,0.429,1.326,0.429,2.057C-121.7,666.969-124.027,669.294-126.884,669.294z"/>
	<path fill="#FFFFFF" d="M-118.448,684.531c-2.117,0-3.932-1.27-4.742-3.089c-0.716-1.894,0.735-3.191,3.509-3.005h2.698
		c1.498,0,2.61-0.531,3.289-1.136c0.27,0.623,0.429,1.321,0.429,2.052C-113.266,682.211-115.593,684.531-118.448,684.531z"/>
	<path fill="#FFFFFF" d="M-136.134,684.531c-1.373,0-2.619-0.535-3.55-1.404l-0.219-0.229c-0.405-0.428-0.729-0.916-0.972-1.456
		c-0.717-1.894,0.73-3.191,3.503-3.005h2.703c1.498,0,2.605-0.531,3.29-1.136c0.27,0.623,0.428,1.321,0.428,2.052
		C-130.95,682.211-133.282,684.531-136.134,684.531z"/>
</g>
<g>
	<path d="M492.996,556.766l0.003-20.532l13.713,0.007l-0.007,20.535l-0.01,6.816c0,3.788-3.075,6.854-6.856,6.854l0,0
		c-3.788-0.007-6.86-3.079-6.853-6.86L492.996,556.766z"/>
	<g>
		<path d="M501.716,490.892v-23.265v-3.338c0-1.509-1.222-2.734-2.734-2.734c-1.506,0-2.73,1.225-2.73,2.734v3.338v23.265v4.389
			h5.464V490.892z"/>
		<path d="M512.307,461.555c-1.509,0-2.734,1.225-2.734,2.734v2.355v28.017v4.391c0,2.081-1.693,3.771-3.771,3.771h-14.288
			c-2.082,0-3.771-1.69-3.771-3.771v-4.391v-28.017v-2.355c0-1.509-1.228-2.734-2.734-2.734c-1.509,0-2.734,1.225-2.734,2.734v2.355
			v28.017v4.391c0,5.093,4.146,9.235,9.239,9.235h4.905v33.387h5.468v-33.387h3.915c5.093,0,9.239-4.143,9.239-9.235v-4.391v-28.017
			v-2.355C515.041,462.78,513.816,461.555,512.307,461.555z"/>
	</g>
	<g>
		<path d="M525.866,556.766l0.007-20.532l13.713,0.007l-0.007,20.535l-0.014,6.816c0,3.788-3.075,6.854-6.863,6.854l0,0
			c-3.784-0.007-6.853-3.079-6.85-6.86L525.866,556.766z"/>
		<g>
			<g>
				<path d="M528.402,527.426v-65.871l3.148,0.619c0.181,0.035,18.174,3.867,18.174,29.585c0,26.246-16.926,33.785-17.645,34.094
					L528.402,527.426z M533.683,468.612v49.993c4.286-3.519,10.765-11.389,10.765-26.846
					C544.447,476.796,537.799,470.856,533.683,468.612z"/>
			</g>
			<path d="M533.84,508.874v-44.081c-0.779-0.189-1.529-0.42-2.372-0.517l-3.045-0.343v81.362h5.468v-42.466"/>
		</g>
	</g>
</g>
<path fill="none" stroke="#FFFFFF" stroke-width="1.5176" stroke-linecap="round" stroke-linejoin="round" stroke-miterlimit="10" d="
	M-379.046,662.202c-0.412,0.274-6.406,5.229-6.406,5.229h-7.508c-0.376,0-0.682,0.305-0.682,0.682v9.725
	c0,0.376,0.306,0.682,0.682,0.682h7.475c2.022,1.804,5.737,5.125,6.233,5.621c0.686,0.686,1.577,0.137,1.577-0.891
	c0-1.029,0-18.854,0-20.088S-378.636,661.928-379.046,662.202z"/>
<path fill="none" stroke="#FFFFFF" stroke-width="1.5176" stroke-linecap="round" stroke-linejoin="round" stroke-miterlimit="10" d="
	M-373.738,668.209c0.883,1.179,1.451,3.025,1.451,5.1c0,1.822-0.438,3.469-1.144,4.641"/>
<path fill="none" stroke="#FFFFFF" stroke-width="1.5176" stroke-linecap="round" stroke-linejoin="round" stroke-miterlimit="10" d="
	M-371.056,665.462c1.436,1.726,2.377,4.598,2.377,7.847c0,2.934-0.768,5.559-1.973,7.311"/>
<path fill="none" stroke="#FFFFFF" stroke-width="1.5176" stroke-linecap="round" stroke-linejoin="round" stroke-miterlimit="10" d="
	M-368.378,662.816c1.959,2.264,3.25,6.118,3.25,10.492c0,4.008-1.083,7.579-2.771,9.891"/>
<g>
	<circle fill="none" stroke="#FFFFFF" stroke-width="1.7633" stroke-miterlimit="10" cx="-376.459" cy="421.386" r="15"/>
	<polyline fill="none" stroke="#FFFFFF" stroke-width="1.7633" stroke-miterlimit="10" points="-376.487,412.549 -376.46,421.385 
		-366.626,426.218 	"/>
</g>
</svg>
