<?xml version="1.0" encoding="utf-8"?>
<!-- Generator: Adobe Illustrator 16.0.0, SVG Export Plug-In . SVG Version: 6.00 Build 0)  -->
<!DOCTYPE svg PUBLIC "-//W3C//DTD SVG 1.1 Tiny//EN" "http://www.w3.org/Graphics/SVG/1.1/DTD/svg11-tiny.dtd">
<svg version="1.1" baseProfile="tiny" id="Layer_1" xmlns="http://www.w3.org/2000/svg" xmlns:xlink="http://www.w3.org/1999/xlink"
	 x="0px" y="0px" width="1032px" height="1032px" viewBox="0 0 1032 1032" xml:space="preserve">
<rect fill="#FFFFFF" width="1032" height="1032"/>
<g>
	<path fill="none" stroke="#FFFFFF" stroke-width="1.44" stroke-miterlimit="10" d="M-64.596,544.178
		c0-6.068-4.937-11.004-11.004-11.004c-6.068,0-11.005,4.936-11.005,11.004c0,2.427,0.799,4.664,2.135,6.485l-0.02-0.009
		l8.889,12.112l8.892-12.112l-0.022,0.01C-65.396,548.844-64.596,546.604-64.596,544.178z"/>
	<circle fill="#FFFFFF" cx="-75.6" cy="544.177" r="6.477"/>
</g>
<g>
	<path fill="none" stroke="#FFFFFF" stroke-width="1.44" stroke-miterlimit="10" d="M-136.134,672.035
		c-4.038,0-7.318,3.285-7.318,7.318l0.006,7.318h7.312c4.034,0,7.314-3.285,7.314-7.318S-132.1,672.035-136.134,672.035z"/>
	<path fill="none" stroke="#FFFFFF" stroke-width="1.44" stroke-miterlimit="10" d="M-118.448,672.035
		c-4.039,0-7.314,3.285-7.314,7.318s3.275,7.318,7.314,7.318c4.029,0,7.312-3.285,7.312-7.318S-114.419,672.035-118.448,672.035z"/>
	<path fill="none" stroke="#FFFFFF" stroke-width="1.44" stroke-miterlimit="10" d="M-126.884,656.798
		c-4.033,0-7.318,3.275-7.318,7.313c0,4.033,3.285,7.314,7.318,7.314c4.029,0,7.314-3.281,7.314-7.314
		C-119.569,660.073-122.854,656.798-126.884,656.798z"/>
	<path fill="#FFFFFF" d="M-126.884,669.294c-2.117,0-3.932-1.274-4.74-3.094c-0.713-1.894,0.729-3.2,3.503-3.01h2.702
		c1.499,0,2.605-0.53,3.29-1.136c0.274,0.629,0.429,1.326,0.429,2.057C-121.7,666.969-124.027,669.294-126.884,669.294z"/>
	<path fill="#FFFFFF" d="M-118.448,684.531c-2.117,0-3.932-1.27-4.742-3.089c-0.716-1.894,0.735-3.191,3.509-3.005h2.698
		c1.498,0,2.61-0.531,3.289-1.136c0.27,0.623,0.429,1.321,0.429,2.052C-113.266,682.211-115.593,684.531-118.448,684.531z"/>
	<path fill="#FFFFFF" d="M-136.134,684.531c-1.373,0-2.619-0.535-3.55-1.404l-0.219-0.229c-0.405-0.428-0.729-0.916-0.972-1.456
		c-0.717-1.894,0.73-3.191,3.503-3.005h2.703c1.498,0,2.605-0.531,3.29-1.136c0.27,0.623,0.428,1.321,0.428,2.052
		C-130.95,682.211-133.282,684.531-136.134,684.531z"/>
</g>
<path d="M553.63,514.896c0-3.063-2.432-5.555-5.466-5.661v-5.157c3.039-0.109,5.466-2.598,5.466-5.664
	c0-3.133-2.535-5.669-5.669-5.669c-3.07,0-5.564,2.437-5.664,5.482h-4.655c-0.099-3.045-2.593-5.482-5.658-5.482
	c-3.071,0-5.565,2.437-5.664,5.482h-4.655c-0.1-3.045-2.593-5.482-5.666-5.482c-3.065,0-5.56,2.437-5.659,5.482h-4.658
	c-0.099-3.045-2.59-5.482-5.661-5.482c-3.068,0-5.562,2.437-5.661,5.482h-4.658c-0.099-3.045-2.59-5.482-5.658-5.482
	c-3.133,0-5.674,2.536-5.674,5.669c0,3.029,2.377,5.498,5.365,5.659v5.167c-2.987,0.161-5.365,2.626-5.365,5.656
	s2.377,5.495,5.365,5.656v5.167c-2.987,0.161-5.365,2.63-5.365,5.659c0,3.026,2.377,5.492,5.365,5.653v5.17
	c-2.987,0.161-5.365,2.629-5.365,5.656c0,3.13,2.541,5.671,5.674,5.671c2.99,0,5.435-2.319,5.648-5.258h4.679
	c0.21,2.938,2.658,5.258,5.65,5.258c2.993,0,5.438-2.319,5.651-5.258h4.679c0.213,2.938,2.658,5.258,5.648,5.258
	c2.995,0,5.442-2.319,5.655-5.258h4.677c0.213,2.938,2.655,5.258,5.653,5.258c2.993,0,5.435-2.319,5.647-5.258h4.677
	c0.213,2.938,2.66,5.258,5.653,5.258c3.134,0,5.669-2.541,5.669-5.671c0-3.063-2.427-5.553-5.466-5.661v-5.16
	c3.034-0.106,5.466-2.598,5.466-5.664c0-3.06-2.432-5.549-5.466-5.658v-5.157C551.198,520.45,553.63,517.959,553.63,514.896z
	 M533.521,542.403c-0.494-0.14-1.008-0.218-1.538-0.218c-0.535,0-1.05,0.078-1.538,0.218h-12.907
	c-0.489-0.14-1.004-0.218-1.54-0.218c-0.533,0-1.047,0.078-1.538,0.218h-12.902c-0.488-0.14-1.005-0.218-1.538-0.218
	c-0.535,0-1.049,0.078-1.538,0.218H489.6v-9.898c0.075-0.366,0.114-0.743,0.114-1.127c0-0.39-0.039-0.765-0.114-1.128v-14.227
	c0.075-0.364,0.114-0.743,0.114-1.128c0-0.387-0.039-0.764-0.114-1.127v-9.675h52.697v10.657c-0.005,0.047-0.01,0.096-0.01,0.146
	c0,0.05,0.005,0.096,0.01,0.146v16.186c-0.005,0.05-0.01,0.1-0.01,0.146c0,0.05,0.005,0.099,0.01,0.146v10.886H533.521z"/>
<g>
	<path fill="#FFFFFF" d="M-133.369,434.121l0.001-5.992l4.002,0.002l-0.002,5.993l-0.003,1.989c0,1.105-0.897,2-2.001,2l0,0
		c-1.105-0.001-2.002-0.897-2-2.002L-133.369,434.121z"/>
	<g>
		<path fill="#FFFFFF" d="M-130.824,414.896v-6.79v-0.974c0-0.44-0.356-0.798-0.798-0.798c-0.439,0-0.797,0.357-0.797,0.798v0.974
			v6.79v1.281h1.595V414.896z"/>
		<path fill="#FFFFFF" d="M-127.733,406.335c-0.44,0-0.798,0.357-0.798,0.798v0.688v8.176v1.281c0,0.607-0.494,1.101-1.101,1.101
			h-4.17c-0.607,0-1.101-0.493-1.101-1.101v-1.281v-8.176v-0.688c0-0.44-0.358-0.798-0.798-0.798c-0.44,0-0.798,0.357-0.798,0.798
			v0.688v8.176v1.281c0,1.486,1.21,2.695,2.696,2.695h1.432v9.744h1.596v-9.744h1.143c1.486,0,2.696-1.209,2.696-2.695v-1.281
			v-8.176v-0.688C-126.936,406.692-127.293,406.335-127.733,406.335z"/>
	</g>
	<g>
		<path fill="#FFFFFF" d="M-123.776,434.121l0.002-5.992l4.002,0.002l-0.002,5.993l-0.004,1.989c0,1.105-0.897,2-2.003,2l0,0
			c-1.104-0.001-2-0.897-1.999-2.002L-123.776,434.121z"/>
		<g>
			<g>
				<path fill="#FFFFFF" d="M-123.036,425.559v-19.224l0.919,0.181c0.053,0.01,5.304,1.128,5.304,8.634
					c0,7.66-4.939,9.86-5.149,9.95L-123.036,425.559z M-121.495,408.395v14.589c1.251-1.026,3.142-3.323,3.142-7.834
					C-118.354,410.783-120.294,409.049-121.495,408.395z"/>
			</g>
			<path fill="#FFFFFF" d="M-121.449,420.145V407.28c-0.228-0.055-0.446-0.123-0.692-0.151l-0.889-0.1v23.745h1.596V418.38"/>
		</g>
	</g>
</g>
<path fill="none" stroke="#FFFFFF" stroke-width="1.5176" stroke-linecap="round" stroke-linejoin="round" stroke-miterlimit="10" d="
	M-379.046,662.202c-0.412,0.274-6.406,5.229-6.406,5.229h-7.508c-0.376,0-0.682,0.305-0.682,0.682v9.725
	c0,0.376,0.306,0.682,0.682,0.682h7.475c2.022,1.804,5.737,5.125,6.233,5.621c0.686,0.686,1.577,0.137,1.577-0.891
	c0-1.029,0-18.854,0-20.088S-378.636,661.928-379.046,662.202z"/>
<path fill="none" stroke="#FFFFFF" stroke-width="1.5176" stroke-linecap="round" stroke-linejoin="round" stroke-miterlimit="10" d="
	M-373.738,668.209c0.883,1.179,1.451,3.025,1.451,5.1c0,1.822-0.438,3.469-1.144,4.641"/>
<path fill="none" stroke="#FFFFFF" stroke-width="1.5176" stroke-linecap="round" stroke-linejoin="round" stroke-miterlimit="10" d="
	M-371.056,665.462c1.436,1.726,2.377,4.598,2.377,7.847c0,2.934-0.768,5.559-1.973,7.311"/>
<path fill="none" stroke="#FFFFFF" stroke-width="1.5176" stroke-linecap="round" stroke-linejoin="round" stroke-miterlimit="10" d="
	M-368.378,662.816c1.959,2.264,3.25,6.118,3.25,10.492c0,4.008-1.083,7.579-2.771,9.891"/>
<g>
	<circle fill="none" stroke="#FFFFFF" stroke-width="1.7633" stroke-miterlimit="10" cx="-376.459" cy="421.386" r="15"/>
	<polyline fill="none" stroke="#FFFFFF" stroke-width="1.7633" stroke-miterlimit="10" points="-376.487,412.549 -376.46,421.385 
		-366.626,426.218 	"/>
</g>
</svg>
