<?xml version="1.0" encoding="utf-8"?>
<!-- Generator: Adobe Illustrator 16.0.0, SVG Export Plug-In . SVG Version: 6.00 Build 0)  -->
<!DOCTYPE svg PUBLIC "-//W3C//DTD SVG 1.1 Tiny//EN" "http://www.w3.org/Graphics/SVG/1.1/DTD/svg11-tiny.dtd">
<svg version="1.1" baseProfile="tiny" id="Layer_1" xmlns="http://www.w3.org/2000/svg" xmlns:xlink="http://www.w3.org/1999/xlink"
	 x="0px" y="0px" width="1032px" height="1032px" viewBox="0 0 1032 1032" xml:space="preserve">
<rect fill="#FFFFFF" width="1032" height="1032"/>
<g>
	<path fill="none" stroke="#FFFFFF" stroke-width="1.44" stroke-miterlimit="10" d="M-64.596,544.178
		c0-6.068-4.937-11.004-11.004-11.004c-6.068,0-11.005,4.936-11.005,11.004c0,2.427,0.799,4.664,2.135,6.485l-0.02-0.009
		l8.889,12.112l8.892-12.112l-0.022,0.01C-65.396,548.844-64.596,546.604-64.596,544.178z"/>
	<circle fill="#FFFFFF" cx="-75.6" cy="544.177" r="6.477"/>
</g>
<g>
	<path d="M533.563,501.912c0-6.147-5.417-10.099-17.71-10.099c-12.15,0-17.417,3.951-17.417,10.099v4.537
		c0,4.977,4.681,8.051,8.196,9.076l22.833,7.172c6.878,2.197,12.295,6.588,12.295,13.32v8.635c0,7.904-6.439,14.492-21.369,15.662
		v10.832c0,1.17-0.439,1.756-1.611,1.756h-4.244c-1.315,0-1.758-0.586-1.758-1.756v-10.686
		c-15.953-0.877-22.537-7.611-22.537-15.809v-4.098c0-1.025,0.436-1.609,1.608-1.609h3.952c1.025,0,1.464,0.584,1.464,1.609v3.805
		c0,6.148,6.146,10.246,18.589,10.246c12.586,0,18.881-4.098,18.881-10.246v-6.586c0-4.83-4.244-7.318-9.221-8.928l-22.833-7.174
		c-4.98-1.609-11.418-6.586-11.418-13.904v-5.855c0-8.05,5.855-15.075,21.515-15.808v-10.978c0-1.172,0.443-1.756,1.758-1.756h4.244
		c1.172,0,1.611,0.584,1.611,1.756v10.978c14.49,1.172,20.347,7.904,20.347,15.808v4.537c0,1.172-0.442,1.611-1.758,1.611h-3.808
		c-1.022,0-1.608-0.439-1.608-1.611V501.912z"/>
</g>
<g>
	<path fill="none" stroke="#FFFFFF" stroke-width="1.44" stroke-miterlimit="10" d="M-136.134,672.035
		c-4.038,0-7.318,3.285-7.318,7.318l0.006,7.318h7.312c4.034,0,7.314-3.285,7.314-7.318S-132.1,672.035-136.134,672.035z"/>
	<path fill="none" stroke="#FFFFFF" stroke-width="1.44" stroke-miterlimit="10" d="M-118.448,672.035
		c-4.039,0-7.314,3.285-7.314,7.318s3.275,7.318,7.314,7.318c4.029,0,7.312-3.285,7.312-7.318S-114.419,672.035-118.448,672.035z"/>
	<path fill="none" stroke="#FFFFFF" stroke-width="1.44" stroke-miterlimit="10" d="M-126.884,656.798
		c-4.033,0-7.318,3.275-7.318,7.313c0,4.033,3.285,7.314,7.318,7.314c4.029,0,7.314-3.281,7.314-7.314
		C-119.569,660.073-122.854,656.798-126.884,656.798z"/>
	<path fill="#FFFFFF" d="M-126.884,669.294c-2.117,0-3.932-1.274-4.74-3.094c-0.713-1.894,0.729-3.2,3.503-3.01h2.702
		c1.499,0,2.605-0.53,3.29-1.136c0.274,0.629,0.429,1.326,0.429,2.057C-121.7,666.969-124.027,669.294-126.884,669.294z"/>
	<path fill="#FFFFFF" d="M-118.448,684.531c-2.117,0-3.932-1.27-4.742-3.089c-0.716-1.894,0.735-3.191,3.509-3.005h2.698
		c1.498,0,2.61-0.531,3.289-1.136c0.27,0.623,0.429,1.321,0.429,2.052C-113.266,682.211-115.593,684.531-118.448,684.531z"/>
	<path fill="#FFFFFF" d="M-136.134,684.531c-1.373,0-2.619-0.535-3.55-1.404l-0.219-0.229c-0.405-0.428-0.729-0.916-0.972-1.456
		c-0.717-1.894,0.73-3.191,3.503-3.005h2.703c1.498,0,2.605-0.531,3.29-1.136c0.27,0.623,0.428,1.321,0.428,2.052
		C-130.95,682.211-133.282,684.531-136.134,684.531z"/>
</g>
<path fill="#FFFFFF" d="M-236.848,720.123c0-1.151-0.914-2.088-2.056-2.128v-1.938c1.143-0.041,2.056-0.977,2.056-2.129
	c0-1.178-0.954-2.131-2.132-2.131c-1.153,0-2.091,0.916-2.128,2.061h-1.751c-0.037-1.145-0.974-2.061-2.127-2.061
	c-1.154,0-2.092,0.916-2.129,2.061h-1.75c-0.037-1.145-0.975-2.061-2.129-2.061c-1.152,0-2.09,0.916-2.127,2.061h-1.751
	c-0.037-1.145-0.974-2.061-2.128-2.061c-1.153,0-2.091,0.916-2.128,2.061h-1.751c-0.037-1.145-0.974-2.061-2.127-2.061
	c-1.178,0-2.133,0.953-2.133,2.131c0,1.139,0.894,2.066,2.017,2.127v1.942c-1.123,0.061-2.017,0.987-2.017,2.126
	s0.894,2.065,2.017,2.126v1.942c-1.123,0.061-2.017,0.988-2.017,2.127c0,1.138,0.894,2.064,2.017,2.125v1.943
	c-1.123,0.061-2.017,0.988-2.017,2.126c0,1.177,0.955,2.132,2.133,2.132c1.124,0,2.043-0.872,2.123-1.977h1.759
	c0.079,1.104,0.999,1.977,2.124,1.977s2.044-0.872,2.124-1.977h1.759c0.08,1.104,0.999,1.977,2.123,1.977
	c1.125,0,2.045-0.872,2.125-1.977h1.758c0.08,1.104,0.999,1.977,2.125,1.977c1.125,0,2.044-0.872,2.123-1.977h1.759
	c0.08,1.104,0.999,1.977,2.124,1.977c1.178,0,2.132-0.955,2.132-2.132c0-1.151-0.913-2.087-2.056-2.128v-1.939
	c1.142-0.04,2.056-0.977,2.056-2.129c0-1.15-0.914-2.086-2.056-2.127v-1.938C-237.762,722.211-236.848,721.274-236.848,720.123z
	 M-244.407,730.463c-0.185-0.053-0.378-0.082-0.578-0.082c-0.201,0-0.395,0.029-0.578,0.082h-4.852
	c-0.184-0.053-0.377-0.082-0.578-0.082c-0.2,0-0.394,0.029-0.578,0.082h-4.85c-0.184-0.053-0.378-0.082-0.578-0.082
	c-0.201,0-0.395,0.029-0.578,0.082h-3.339v-3.721c0.028-0.138,0.043-0.279,0.043-0.424c0-0.146-0.015-0.287-0.043-0.424v-5.348
	c0.028-0.137,0.043-0.279,0.043-0.424c0-0.146-0.015-0.287-0.043-0.424v-3.637h19.808v4.006c-0.001,0.018-0.004,0.036-0.004,0.055
	s0.003,0.036,0.004,0.055v6.084c-0.001,0.019-0.004,0.037-0.004,0.055c0,0.019,0.003,0.037,0.004,0.055v4.092H-244.407z"/>
<g>
	<path fill="#FFFFFF" d="M-133.369,434.121l0.001-5.992l4.002,0.002l-0.002,5.993l-0.003,1.989c0,1.105-0.897,2-2.001,2l0,0
		c-1.105-0.001-2.002-0.897-2-2.002L-133.369,434.121z"/>
	<g>
		<path fill="#FFFFFF" d="M-130.824,414.896v-6.79v-0.974c0-0.44-0.356-0.798-0.798-0.798c-0.439,0-0.797,0.357-0.797,0.798v0.974
			v6.79v1.281h1.595V414.896z"/>
		<path fill="#FFFFFF" d="M-127.733,406.335c-0.44,0-0.798,0.357-0.798,0.798v0.688v8.176v1.281c0,0.607-0.494,1.101-1.101,1.101
			h-4.17c-0.607,0-1.101-0.493-1.101-1.101v-1.281v-8.176v-0.688c0-0.44-0.358-0.798-0.798-0.798c-0.44,0-0.798,0.357-0.798,0.798
			v0.688v8.176v1.281c0,1.486,1.21,2.695,2.696,2.695h1.432v9.744h1.596v-9.744h1.143c1.486,0,2.696-1.209,2.696-2.695v-1.281
			v-8.176v-0.688C-126.936,406.692-127.293,406.335-127.733,406.335z"/>
	</g>
	<g>
		<path fill="#FFFFFF" d="M-123.776,434.121l0.002-5.992l4.002,0.002l-0.002,5.993l-0.004,1.989c0,1.105-0.897,2-2.003,2l0,0
			c-1.104-0.001-2-0.897-1.999-2.002L-123.776,434.121z"/>
		<g>
			<g>
				<path fill="#FFFFFF" d="M-123.036,425.559v-19.224l0.919,0.181c0.053,0.01,5.304,1.128,5.304,8.634
					c0,7.66-4.939,9.86-5.149,9.95L-123.036,425.559z M-121.495,408.395v14.589c1.251-1.026,3.142-3.323,3.142-7.834
					C-118.354,410.783-120.294,409.049-121.495,408.395z"/>
			</g>
			<path fill="#FFFFFF" d="M-121.449,420.145V407.28c-0.228-0.055-0.446-0.123-0.692-0.151l-0.889-0.1v23.745h1.596V418.38"/>
		</g>
	</g>
</g>
<path fill="none" stroke="#FFFFFF" stroke-width="1.5176" stroke-linecap="round" stroke-linejoin="round" stroke-miterlimit="10" d="
	M-379.046,662.202c-0.412,0.274-6.406,5.229-6.406,5.229h-7.508c-0.376,0-0.682,0.305-0.682,0.682v9.725
	c0,0.376,0.306,0.682,0.682,0.682h7.475c2.022,1.804,5.737,5.125,6.233,5.621c0.686,0.686,1.577,0.137,1.577-0.891
	c0-1.029,0-18.854,0-20.088S-378.636,661.928-379.046,662.202z"/>
<path fill="none" stroke="#FFFFFF" stroke-width="1.5176" stroke-linecap="round" stroke-linejoin="round" stroke-miterlimit="10" d="
	M-373.738,668.209c0.883,1.179,1.451,3.025,1.451,5.1c0,1.822-0.438,3.469-1.144,4.641"/>
<path fill="none" stroke="#FFFFFF" stroke-width="1.5176" stroke-linecap="round" stroke-linejoin="round" stroke-miterlimit="10" d="
	M-371.056,665.462c1.436,1.726,2.377,4.598,2.377,7.847c0,2.934-0.768,5.559-1.973,7.311"/>
<path fill="none" stroke="#FFFFFF" stroke-width="1.5176" stroke-linecap="round" stroke-linejoin="round" stroke-miterlimit="10" d="
	M-368.378,662.816c1.959,2.264,3.25,6.118,3.25,10.492c0,4.008-1.083,7.579-2.771,9.891"/>
<g>
	<circle fill="none" stroke="#FFFFFF" stroke-width="1.7633" stroke-miterlimit="10" cx="-376.459" cy="421.386" r="15"/>
	<polyline fill="none" stroke="#FFFFFF" stroke-width="1.7633" stroke-miterlimit="10" points="-376.487,412.549 -376.46,421.385 
		-366.626,426.218 	"/>
</g>
</svg>
