<?xml version="1.0" encoding="utf-8"?>
<!-- Generator: Adobe Illustrator 16.0.0, SVG Export Plug-In . SVG Version: 6.00 Build 0)  -->
<!DOCTYPE svg PUBLIC "-//W3C//DTD SVG 1.1 Tiny//EN" "http://www.w3.org/Graphics/SVG/1.1/DTD/svg11-tiny.dtd">
<svg version="1.1" baseProfile="tiny" id="Layer_1" xmlns="http://www.w3.org/2000/svg" xmlns:xlink="http://www.w3.org/1999/xlink"
	 x="0px" y="0px" width="1032px" height="1032px" viewBox="0 0 1032 1032" xml:space="preserve">
<path fill="none" stroke="#000000" stroke-width="8" stroke-linecap="round" stroke-linejoin="round" stroke-miterlimit="10" d="
	M523.763,461.649c-1.453,0.967-22.588,18.438-22.588,18.438h-26.472c-1.326,0-2.403,1.075-2.403,2.404v34.288
	c0,1.326,1.077,2.402,2.403,2.402h26.354c7.131,6.359,20.23,18.069,21.979,19.819c2.417,2.417,5.561,0.481,5.561-3.141
	c0-3.63,0-66.477,0-70.828S525.208,460.681,523.763,461.649z"/>
<path fill="none" stroke="#000000" stroke-width="8" stroke-linecap="round" stroke-linejoin="round" stroke-miterlimit="10" d="
	M542.477,482.829c3.112,4.156,5.117,10.667,5.117,17.98c0,6.426-1.547,12.23-4.031,16.362"/>
<path fill="none" stroke="#000000" stroke-width="8" stroke-linecap="round" stroke-linejoin="round" stroke-miterlimit="10" d="
	M551.935,473.143c5.062,6.084,8.382,16.211,8.382,27.667c0,10.344-2.705,19.6-6.955,25.776"/>
<path fill="none" stroke="#000000" stroke-width="8" stroke-linecap="round" stroke-linejoin="round" stroke-miterlimit="10" d="
	M561.377,463.814c6.906,7.98,11.459,21.572,11.459,36.994c0,14.132-3.819,26.725-9.771,34.873"/>
</svg>
