<?xml version="1.0" encoding="utf-8"?>
<!-- Generator: Adobe Illustrator 16.0.0, SVG Export Plug-In . SVG Version: 6.00 Build 0)  -->
<!DOCTYPE svg PUBLIC "-//W3C//DTD SVG 1.1 Tiny//EN" "http://www.w3.org/Graphics/SVG/1.1/DTD/svg11-tiny.dtd">
<svg version="1.1" baseProfile="tiny" id="Layer_1" xmlns="http://www.w3.org/2000/svg" xmlns:xlink="http://www.w3.org/1999/xlink"
	 x="0px" y="0px" width="1032px" height="1032px" viewBox="0 0 1032 1032" xml:space="preserve">
<rect fill="#FFFFFF" width="1032" height="1032"/>
<path d="M617.019,493.426H414.932v119.085h119.831V525.35h64.134v87.161h18.122V493.426z M519.788,580.909h-86.727v-55.89h86.727
	V580.909z"/>
<polygon points="453.932,446.408 436.031,446.408 401.698,473.605 428.67,473.605 "/>
<polygon points="489.735,446.408 471.833,446.408 453.785,473.605 478.906,473.605 "/>
<polygon points="561.329,446.408 543.434,446.408 554.257,473.605 579.378,473.605 "/>
<polygon points="597.131,446.408 579.229,446.408 604.492,473.605 630.302,473.605 "/>
<path d="M415.534,487.51c5.565,0,10.362-3.314,12.564-8.084c2.182,4.77,6.979,8.084,12.545,8.084c5.578,0,10.381-3.314,12.57-8.084
	c2.188,4.77,6.985,8.084,12.557,8.084c5.565,0,10.362-3.314,12.551-8.084c2.195,4.77,6.992,8.084,12.563,8.084
	s10.369-3.314,12.558-8.084c2.189,4.77,6.993,8.084,12.558,8.084c5.578,0,10.368-3.314,12.558-8.084
	c2.194,4.77,6.998,8.084,12.563,8.084c5.571,0,10.361-3.314,12.558-8.084c2.188,4.77,6.985,8.084,12.558,8.084
	c5.571,0,10.374-3.314,12.563-8.084c2.183,4.77,6.991,8.084,12.558,8.084c5.571,0,10.362-3.314,12.557-8.084
	c2.189,4.77,6.986,8.084,12.558,8.084c7.638,0,13.83-6.228,13.83-13.905h-25.12h-2.54h-22.575h-2.54h-22.575h-2.54H529.83h-2.539
	h-22.575h-2.541h-22.574h-2.546h-22.582h-2.534h-22.574h-2.54h-25.127C401.698,481.282,407.896,487.51,415.534,487.51z"/>
<polygon points="525.532,446.408 507.63,446.408 504.021,473.605 529.143,473.605 "/>
<g>
	<path d="M451.589,437.934h-4.6c-0.197,0-0.302-0.051-0.542-0.514c-0.874-1.7-2.773-4.693-2.773-4.693l-2.99,0.049
		c0,0,0,2.898,0,4.926c0,0.212-0.018,0.232-0.203,0.232c-1.66,0-2.699,0-4.255,0c-0.209,0-0.209,0.034-0.209-0.232
		c0-6.727,0-10.976,0-17.21c0-0.26,0.129-0.236,0.209-0.236h8.038c4.003,0,6.131,2.767,6.131,5.977c0,2.396-0.831,4.089-2.417,4.846
		c0.67,1.075,2.152,3.701,3.665,6.157C451.958,437.753,451.873,437.934,451.589,437.934z M443.263,424.143h-2.577v5.116l2.596-0.083
		c1.401-0.055,2.177-1.097,2.177-2.607C445.458,425.185,444.769,424.143,443.263,424.143z"/>
	<path d="M458.803,437.934c-1.709,0-2.669,0-4.304,0c-0.24,0-0.24,0.034-0.24-0.232c0-6.727,0-10.976,0-17.21
		c0-0.26,0-0.236,0.24-0.236c1.635,0,2.595,0,4.304,0c0.24,0,0.258,0.025,0.258,0.236c0,4.047,0,13.118,0,17.21
		C459.061,437.914,459.043,437.934,458.803,437.934z"/>
	<path d="M468.82,438.382c-3.529,0-5.737-1.425-6.617-3.989c-0.104-0.291-0.08-0.419,0.105-0.497l3.191-1.304
		c0.234-0.077,0.234-0.077,0.283,0.134c0.314,0.968,1.5,2.105,3.143,2.105c1.79,0,2.62-0.54,2.62-1.74
		c0-1.069-0.756-1.752-3.143-2.041c-0.178-0.021-0.431-0.055-0.622-0.076c-3.142-0.31-5.319-2.086-5.319-5.321
		c0-3.385,2.312-5.759,6.9-5.759c3.462,0,5.578,1.633,6.254,3.833c0.08,0.285-0.025,0.382-0.173,0.438l-3.038,1.234
		c-0.184,0.071-0.265,0.024-0.314-0.104c-0.369-1.048-1.562-2.065-2.909-2.065c-1.814,0-2.379,0.68-2.379,1.642
		c0,1.201,0.953,1.697,3.29,2.083c0.233,0.027,0.511,0.089,0.854,0.131c3.321,0.475,5.246,2.246,5.246,5.506
		C476.194,436.608,472.891,438.382,468.82,438.382z"/>
	<path d="M491.371,424.066l-4.434-0.055c0,0,0,11.663,0,13.69c0,0.212-0.031,0.232-0.234,0.232c-1.74,0-2.675,0-4.286,0
		c-0.258,0-0.258,0.034-0.258-0.232c0-3.229,0-13.69,0-13.69l-4.569,0.055c-0.185,0-0.185-0.034-0.185-0.181c0-1.458,0-1.596,0-3.37
		c0-0.208,0-0.26,0.209-0.26h13.738c0.179,0,0.203,0.052,0.203,0.26c0,1.774,0,1.912,0,3.37
		C491.555,424.033,491.531,424.066,491.371,424.066z"/>
	<path d="M501.96,438.382c-5.239,0-9.218-4.12-9.218-9.23c0-5.119,3.979-9.258,9.218-9.258c5.233,0,9.212,4.139,9.212,9.258
		C511.172,434.262,507.194,438.382,501.96,438.382z M501.96,424.354c-2.81,0-4.36,2.104-4.36,4.797c0,2.687,1.55,4.767,4.36,4.767
		c2.743,0,4.36-2.08,4.36-4.767C506.321,426.459,504.704,424.354,501.96,424.354z"/>
	<path d="M529.984,437.934h-4.594c-0.203,0-0.308-0.051-0.542-0.514c-0.885-1.7-2.772-4.693-2.772-4.693l-2.989,0.049
		c0,0,0,2.898,0,4.926c0,0.212-0.024,0.232-0.216,0.232c-1.653,0-2.686,0-4.249,0c-0.208,0-0.208,0.034-0.208-0.232
		c0-6.727,0-10.976,0-17.21c0-0.26,0.129-0.236,0.208-0.236h8.044c3.991,0,6.125,2.767,6.125,5.977c0,2.396-0.83,4.089-2.411,4.846
		c0.677,1.075,2.146,3.701,3.659,6.157C530.347,437.753,530.268,437.934,529.984,437.934z M521.657,424.143h-2.57v5.116l2.596-0.083
		c1.396-0.055,2.177-1.097,2.177-2.607C523.859,425.185,523.164,424.143,521.657,424.143z"/>
	<path d="M549.27,437.934c-1.255,0-2.854,0-4.858,0c-0.129,0-0.233-0.021-0.313-0.202c-0.308-0.71-0.695-1.67-0.959-2.325h-6.272
		c-0.32,0.729-0.652,1.615-0.916,2.239c-0.081,0.214-0.124,0.288-0.469,0.288c-1.715,0-2.589,0-4.311,0
		c-0.208,0-0.228-0.104-0.129-0.361c2.706-5.766,6.802-14.083,8.824-17.888c0.031-0.055,0.16-0.055,0.308-0.055
		c0.166,0,0.295-0.028,0.314,0.055c2.367,4.638,6.026,12.122,8.873,17.888C549.527,437.914,549.497,437.934,549.27,437.934z
		 M539.916,428.058l-1.759,3.964h3.598L539.916,428.058z"/>
	<path d="M566.31,438.403c-0.049,0.027-0.122,0-0.239-0.071c-3.911-2.947-10.03-8.608-10.03-8.608v7.977
		c0,0.232,0,0.232-0.239,0.232c-1.63,0-2.355,0-3.917,0c-0.186,0-0.259-0.15-0.259-0.26c-0.136-6.645-0.105-10.789,0-17.676
		c0-0.128,0.023-0.184,0.073-0.214c0.056-0.046,0.129-0.021,0.21,0.031c3.707,2.656,10.066,8.581,10.066,8.581v-7.827
		c0-0.288,0-0.312,0.209-0.312c1.556,0,2.312,0,3.948,0c0.258,0,0.258,0.052,0.258,0.312c0.104,5.085,0.08,12.079,0,17.499
		C566.39,438.256,566.39,438.382,566.31,438.403z"/>
	<path d="M582.92,424.066l-4.44-0.055c0,0,0,11.663,0,13.69c0,0.212-0.024,0.232-0.233,0.232c-1.74,0-2.669,0-4.28,0
		c-0.265,0-0.265,0.034-0.265-0.232c0-3.229,0-13.69,0-13.69l-4.568,0.055c-0.173,0-0.173-0.034-0.173-0.181c0-1.458,0-1.596,0-3.37
		c0-0.208,0-0.26,0.203-0.26h13.738c0.172,0,0.203,0.052,0.203,0.26c0,1.774,0,1.912,0,3.37
		C583.104,424.033,583.073,424.066,582.92,424.066z"/>
	<path d="M597.869,437.934h-11.862c-0.258,0-0.288-0.051-0.288-0.361c0-4.562,0-12.049,0-17.058c0-0.235-0.02-0.26,0.239-0.26
		h11.732c0.253,0,0.283,0.025,0.283,0.34c0,1.306,0,2.062,0,3.186c0,0.23-0.08,0.362-0.283,0.362l-7.422-0.077v2.947h7.256
		c0.24,0,0.265,0.049,0.265,0.365c0,1.274,0,2.138,0,3.18c0,0.312-0.024,0.365-0.265,0.365h-7.256v3.021l7.601-0.07
		c0.283,0,0.283,0,0.283,0.337c0,1.305,0,2.297,0,3.364C598.152,437.883,598.127,437.934,597.869,437.934z"/>
</g>
</svg>
