<?xml version="1.0" encoding="utf-8"?>
<!-- Generator: Adobe Illustrator 16.0.0, SVG Export Plug-In . SVG Version: 6.00 Build 0)  -->
<!DOCTYPE svg PUBLIC "-//W3C//DTD SVG 1.1 Tiny//EN" "http://www.w3.org/Graphics/SVG/1.1/DTD/svg11-tiny.dtd">
<svg version="1.1" baseProfile="tiny" id="Layer_1" xmlns="http://www.w3.org/2000/svg" xmlns:xlink="http://www.w3.org/1999/xlink"
	 x="0px" y="0px" width="1032px" height="1032px" viewBox="0 0 1032 1032" xml:space="preserve">
<path fill="none" stroke="#000000" stroke-width="12" stroke-miterlimit="10" d="M565.749,502.326
	c0-27.434-22.316-49.747-49.746-49.747c-27.435,0-49.752,22.313-49.752,49.747c0,10.972,3.611,21.086,9.651,29.32l-0.089-0.041
	l40.186,54.76l40.197-54.76l-0.102,0.045C562.134,523.421,565.749,513.298,565.749,502.326z"/>
<path d="M516.003,532.826c17.793,0,32.223-14.426,32.223-32.223c0-17.792-14.43-32.227-32.223-32.227
	c-17.797,0-32.228,14.435-32.228,32.227C483.775,518.4,498.206,532.826,516.003,532.826z"/>
<path fill="none" stroke="#FFFFFF" stroke-width="1.5176" stroke-linecap="round" stroke-linejoin="round" stroke-miterlimit="10" d="
	M-380.417,585.683c-0.412,0.274-6.406,5.229-6.406,5.229h-7.508c-0.376,0-0.682,0.305-0.682,0.682v9.725
	c0,0.376,0.306,0.682,0.682,0.682h7.475c2.022,1.804,5.737,5.125,6.233,5.621c0.686,0.686,1.577,0.137,1.577-0.891
	c0-1.029,0-18.854,0-20.088S-380.007,585.408-380.417,585.683z"/>
<path fill="none" stroke="#FFFFFF" stroke-width="1.5176" stroke-linecap="round" stroke-linejoin="round" stroke-miterlimit="10" d="
	M-375.109,591.689c0.883,1.179,1.451,3.025,1.451,5.1c0,1.822-0.438,3.469-1.144,4.641"/>
<path fill="none" stroke="#FFFFFF" stroke-width="1.5176" stroke-linecap="round" stroke-linejoin="round" stroke-miterlimit="10" d="
	M-372.427,588.942c1.436,1.726,2.377,4.598,2.377,7.847c0,2.934-0.768,5.559-1.973,7.311"/>
<path fill="none" stroke="#FFFFFF" stroke-width="1.5176" stroke-linecap="round" stroke-linejoin="round" stroke-miterlimit="10" d="
	M-369.749,586.297c1.959,2.264,3.25,6.118,3.25,10.492c0,4.008-1.083,7.579-2.771,9.891"/>
</svg>
